# xmcd
#
# Track frame offsets:
#	150
#	11388
#	20651
#	34470
#	44897
#	63282
#	82919
#	96684
#	107709
#	123699
#	133726
#	145401
#	154044
#	163687
#	173290
#	183765
#	194771
#	206202
#	217349
#	230651
#	250677
#	269332
#	284737
#	296759
#	310508
#
# Disc length: 4401 seconds
#
# Revision: 0
# Processed by: cddbd v1.5.2PL0 Copyright (c) Steve Scherf et al.
# Submitted via: dBpowerAMP V4.0
#
DISCID=88112f19
DTITLE=Rockin' M Wranglers - The Best Of The Rockin' M Wranglers
DYEAR=2007
DGENRE=Cowboy
TTITLE0=Happy Cowboy
TTITLE1=Swiss Yodel
TTITLE2=Canyons of My Mind
TTITLE3=The Timber Trail
TTITLE4=Colorado Trail
TTITLE5=Night Riders Lament
TTITLE6=Land of Enchantment
TTITLE7=Goldmine in the Sky
TTITLE8=Yodel Your Troubles Away/Payday
TTITLE9=Azure Skies
TTITLE10=Yodel Blues
TTITLE11=Wide Rollin' Plains
TTITLE12=Yodelin' Bird
TTITLE13=I'd Rather Be a Cowgirl
TTITLE14=Pinto Pal
TTITLE15=Cattle Call
TTITLE16=Cowboys Sweetheart
TTITLE17=Cowboy Camp Meeting
TTITLE18=You're Never Alone on the Lone Prairie
TTITLE19=Last Cattle Call
TTITLE20=Partner in His Plan
TTITLE21=Amazing Grace
TTITLE22=Mystery of His Way
TTITLE23=Two in the Saddle
TTITLE24=Cathedral in the Pines/The Place Where I Worship
EXTD=
EXTT0=
EXTT1=
EXTT2=
EXTT3=
EXTT4=
EXTT5=
EXTT6=
EXTT7=
EXTT8=
EXTT9=
EXTT10=
EXTT11=
EXTT12=
EXTT13=
EXTT14=
EXTT15=
EXTT16=
EXTT17=
EXTT18=
EXTT19=
EXTT20=
EXTT21=
EXTT22=
EXTT23=
EXTT24=
PLAYORDER=
